<?xml version="1.0" encoding="UTF-8"?>
<svg xmlns="http://www.w3.org/2000/svg" xmlns:xlink="http://www.w3.org/1999/xlink" width="56.693" height="70.866" viewBox="0 0 56.693 70.866">
<defs>
<clipPath id="clip-0">
<path clip-rule="nonzero" d="M 0 0.125 L 56.386719 0.125 L 56.386719 57 L 0 57 Z M 0 0.125 "/>
</clipPath>
<clipPath id="clip-1">
<path clip-rule="nonzero" d="M 14 56 L 29 56 L 29 70.609375 L 14 70.609375 Z M 14 56 "/>
</clipPath>
<clipPath id="clip-2">
<path clip-rule="nonzero" d="M 28 56 L 43 56 L 43 70.609375 L 28 70.609375 Z M 28 56 "/>
</clipPath>
</defs>
<g clip-path="url(#clip-0)">
<path fill-rule="nonzero" fill="rgb(15.684509%, 15.684509%, 15.684509%)" fill-opacity="1" d="M 0 56.511719 L 0 0.125 L 56.386719 0.125 L 56.386719 56.511719 Z M 0 56.511719 "/>
</g>
<path fill-rule="nonzero" fill="rgb(100%, 100%, 100%)" fill-opacity="1" d="M 35.242188 28.316406 C 35.242188 24.425781 32.085938 21.269531 28.195312 21.269531 C 24.300781 21.269531 21.144531 24.425781 21.144531 28.316406 C 21.144531 32.210938 24.300781 35.367188 28.195312 35.367188 C 32.085938 35.367188 35.242188 32.210938 35.242188 28.316406 Z M 35.242188 28.316406 "/>
<g clip-path="url(#clip-1)">
<path fill-rule="nonzero" fill="rgb(15.684509%, 15.684509%, 15.684509%)" fill-opacity="1" d="M 14.097656 56.511719 L 28.195312 70.609375 L 28.195312 56.511719 "/>
</g>
<g clip-path="url(#clip-2)">
<path fill-rule="nonzero" fill="rgb(15.684509%, 15.684509%, 15.684509%)" fill-opacity="1" d="M 42.292969 56.511719 L 28.195312 70.609375 L 28.195312 56.511719 "/>
</g>
</svg>
