<?xml version="1.0" encoding="UTF-8"?>
<svg xmlns="http://www.w3.org/2000/svg" xmlns:xlink="http://www.w3.org/1999/xlink" width="425.197" height="425.197" viewBox="0 0 425.197 425.197">
<defs>
<clipPath id="clip-0">
<path clip-rule="nonzero" d="M 0 0 L 424.394531 0 L 424.394531 424.394531 L 0 424.394531 Z M 0 0 "/>
</clipPath>
</defs>
<g clip-path="url(#clip-0)">
<path fill-rule="nonzero" fill="rgb(15.684509%, 15.684509%, 15.684509%)" fill-opacity="1" d="M 424.398438 212.199219 C 424.398438 95 329.394531 -0.00390625 212.195312 -0.00390625 C 95 -0.00390625 -0.00390625 95 -0.00390625 212.199219 C -0.00390625 329.394531 95 424.398438 212.195312 424.398438 C 329.394531 424.398438 424.398438 329.394531 424.398438 212.199219 Z M 424.398438 212.199219 "/>
</g>
<path fill="none" stroke-width="5.66934" stroke-linecap="butt" stroke-linejoin="miter" stroke="rgb(100%, 100%, 70.588684%)" stroke-opacity="1" stroke-miterlimit="10" d="M -106.299974 -70.868924 L -106.299974 -0.709331 " transform="matrix(0.998115, 0, 0, -0.998115, 212.197258, 212.198256)"/>
<path fill="none" stroke-width="5.66934" stroke-linecap="butt" stroke-linejoin="miter" stroke="rgb(100%, 100%, 70.588684%)" stroke-opacity="1" stroke-miterlimit="10" d="M -103.818735 -3.542797 L 2.835431 -3.542797 " transform="matrix(0.998115, 0, 0, -0.998115, 212.197258, 212.198256)"/>
<path fill="none" stroke-width="5.66934" stroke-linecap="butt" stroke-linejoin="miter" stroke="rgb(100%, 100%, 70.588684%)" stroke-opacity="1" stroke-miterlimit="10" d="M -0.00194893 -3.542797 L -0.00194893 109.13444 " transform="matrix(0.998115, 0, 0, -0.998115, 212.197258, 212.198256)"/>
<path fill="none" stroke-width="5.66934" stroke-linecap="butt" stroke-linejoin="miter" stroke="rgb(100%, 100%, 70.588684%)" stroke-opacity="1" stroke-miterlimit="10" d="M 0.710331 106.300974 L 70.866011 106.300974 " transform="matrix(0.998115, 0, 0, -0.998115, 212.197258, 212.198256)"/>
</svg>
